# xmcd
#
# Track frame offsets: 
#        150
#        16007
#        28992
#        41776
#        60094
#        75310
#        93457
#        109782
#        128528
#        140422
#        159487
#        180917
#        199264
#
# Disc length: 3211 seconds
#
# Revision: 1
# Processed by: cddbd v1.5.2PL0 Copyright (c) Steve Scherf et al.
# Submitted via: ExactAudioCopy v1.1
#
DISCID=980c890d
DTITLE=Olivia Ruiz - La femme chocolat
DYEAR=1900
DGENRE=
TTITLE0=J'traîne des pieds
TTITLE1=La femme chocolat
TTITLE2=I need a child
TTITLE3=Non-dits
TTITLE4=Thérapie de groupe
TTITLE5=La petite valse de Narbonne plage
TTITLE6=Quijote
TTITLE7=Cabaret blanc
TTITLE8=Goûtez-moi
TTITLE9=Vitrier
TTITLE10=La petite voleuse
TTITLE11=La fille du vent
TTITLE12=De toi a moi
EXTD=
EXTT0=
EXTT1=
EXTT2=
EXTT3=
EXTT4=
EXTT5=
EXTT6=
EXTT7=
EXTT8=
EXTT9=
EXTT10=
EXTT11=
EXTT12=
PLAYORDER=
